<svg width="50" height="50" viewBox="0 0 50 50" fill="none" xmlns="http://www.w3.org/2000/svg">
<g id="Group 2">
<path id="Vector" d="M25 0C21.717 0 18.466 0.646714 15.4329 1.903C12.3997 3.15943 9.64386 5.00086 7.32229 7.32229C5.00086 9.64386 3.15943 12.3997 1.903 15.4329C0.646714 18.466 0 21.717 0 25C0 28.283 0.646714 31.534 1.903 34.5671C3.15943 37.6003 5.00086 40.3561 7.32229 42.6777C9.64386 44.9991 12.3997 46.8406 15.4329 48.097C18.466 49.3533 21.717 50 25 50V37.5C23.3584 37.5 21.733 37.1767 20.2164 36.5484C18.6999 35.9203 17.3219 34.9996 16.1611 33.8389C15.0004 32.6781 14.0797 31.3001 13.4516 29.7836C12.8233 28.267 12.5 26.6416 12.5 25C12.5 23.3584 12.8233 21.733 13.4516 20.2164C14.0797 18.6999 15.0004 17.3219 16.1611 16.1611C17.3219 15.0004 18.6999 14.0797 20.2164 13.4516C21.733 12.8233 23.3584 12.5 25 12.5V0Z" fill="#0F52FF" fill-opacity="0.9"/>
<path id="Vector_2" d="M0 24.359C0 27.7262 0.646714 31.0605 1.903 34.1714C3.15943 37.2823 5.00086 40.1089 7.32229 42.49C9.64386 44.8709 12.3997 46.7596 15.4329 48.0482C18.466 49.3367 21.717 50 25 50C28.283 50 31.534 49.3367 34.5671 48.0482C37.6003 46.7596 40.3561 44.8709 42.6777 42.49C44.9991 40.1089 46.8406 37.2823 48.097 34.1714C49.3533 31.0605 50 27.7262 50 24.359H37.5C37.5 26.0426 37.1767 27.7097 36.5484 29.2652C35.9203 30.8207 34.9996 32.234 33.8389 33.4245C32.6781 34.615 31.3001 35.5593 29.7836 36.2035C28.267 36.8479 26.6416 37.1795 25 37.1795C23.3584 37.1795 21.733 36.8479 20.2164 36.2035C18.6999 35.5593 17.3219 34.615 16.1611 33.4245C15.0004 32.234 14.0797 30.8207 13.4516 29.2652C12.8233 27.7097 12.5 26.0426 12.5 24.359H0Z" fill="#5BD0F4" fill-opacity="0.9"/>
<path id="Vector_3" d="M25.6581 32.0513C30.3817 32.0513 34.2107 28.3204 34.2107 23.7179C34.2107 19.1155 30.3817 15.3846 25.6581 15.3846C20.9345 15.3846 17.1055 19.1155 17.1055 23.7179C17.1055 28.3204 20.9345 32.0513 25.6581 32.0513Z" fill="#0F52FF" fill-opacity="0.9"/>
<path id="Vector_4" d="M34.2107 24.359C34.2107 21.9788 33.3096 19.6963 31.7058 18.0132C30.1018 16.3301 27.9265 15.3846 25.6582 15.3846C23.3899 15.3846 21.2145 16.3301 19.6106 18.0132C18.0066 19.6963 17.1055 21.9788 17.1055 24.359H25.6582H34.2107Z" fill="#5BD0F4" fill-opacity="0.9"/>
</g>
</svg>
