<svg width="193" height="50" viewBox="0 0 193 50" fill="none" xmlns="http://www.w3.org/2000/svg">
<path d="M70.576 33.32C68.4 33.32 66.4907 32.84 64.848 31.88C63.2267 30.92 61.968 29.576 61.072 27.848C60.176 26.0987 59.728 24.0507 59.728 21.704C59.728 19.336 60.176 17.288 61.072 15.56C61.968 13.832 63.2267 12.4987 64.848 11.56C66.4693 10.6 68.3787 10.12 70.576 10.12C72.7733 10.12 74.6827 10.6 76.304 11.56C77.9253 12.4987 79.184 13.832 80.08 15.56C80.976 17.288 81.424 19.3253 81.424 21.672C81.424 24.04 80.976 26.0987 80.08 27.848C79.184 29.576 77.9253 30.92 76.304 31.88C74.6827 32.84 72.7733 33.32 70.576 33.32ZM70.576 29.8C72.6453 29.8 74.256 29.0853 75.408 27.656C76.56 26.2267 77.136 24.2427 77.136 21.704C77.136 19.144 76.56 17.16 75.408 15.752C74.2773 14.344 72.6667 13.64 70.576 13.64C68.5067 13.64 66.896 14.344 65.744 15.752C64.592 17.16 64.016 19.144 64.016 21.704C64.016 24.2427 64.592 26.2267 65.744 27.656C66.896 29.0853 68.5067 29.8 70.576 29.8ZM85.205 33V17.352H89.109V19.784C89.6423 18.888 90.357 18.2053 91.253 17.736C92.1703 17.2667 93.1943 17.032 94.325 17.032C98.0157 17.032 99.861 19.176 99.861 23.464V33H95.861V23.656C95.861 22.44 95.6263 21.5547 95.157 21C94.709 20.4453 94.005 20.168 93.045 20.168C91.8717 20.168 90.933 20.5413 90.229 21.288C89.5463 22.0133 89.205 22.984 89.205 24.2V33H85.205Z" fill="#106CF6"/>
<path d="M104.308 33V10.44H114.1C116.574 10.44 118.484 11.0587 119.828 12.296C121.172 13.5333 121.844 15.2613 121.844 17.48C121.844 19.6987 121.172 21.4373 119.828 22.696C118.484 23.9333 116.574 24.552 114.1 24.552H108.404V33H104.308ZM108.404 21.32H113.46C116.404 21.32 117.876 20.04 117.876 17.48C117.876 14.9413 116.404 13.672 113.46 13.672H108.404V21.32ZM124.486 33V17.352H128.39V20.104C129.158 18.248 130.801 17.224 133.318 17.032L134.534 16.936L134.79 20.328L132.486 20.552C129.862 20.808 128.55 22.152 128.55 24.584V33H124.486ZM143.904 33.32C142.282 33.32 140.874 32.9893 139.68 32.328C138.485 31.6667 137.557 30.728 136.896 29.512C136.234 28.2747 135.904 26.824 135.904 25.16C135.904 23.496 136.234 22.056 136.896 20.84C137.557 19.624 138.485 18.6853 139.68 18.024C140.874 17.3627 142.282 17.032 143.904 17.032C145.525 17.032 146.933 17.3627 148.128 18.024C149.322 18.6853 150.25 19.624 150.912 20.84C151.573 22.056 151.904 23.496 151.904 25.16C151.904 26.824 151.573 28.2747 150.912 29.512C150.25 30.728 149.322 31.6667 148.128 32.328C146.933 32.9893 145.525 33.32 143.904 33.32ZM143.904 30.28C145.098 30.28 146.058 29.8533 146.784 29C147.509 28.1253 147.872 26.8453 147.872 25.16C147.872 23.4533 147.509 22.184 146.784 21.352C146.058 20.4987 145.098 20.072 143.904 20.072C142.709 20.072 141.749 20.4987 141.024 21.352C140.298 22.184 139.936 23.4533 139.936 25.16C139.936 26.8453 140.298 28.1253 141.024 29C141.749 29.8533 142.709 30.28 143.904 30.28ZM155.205 33V17.352H159.109V19.784C159.642 18.888 160.357 18.2053 161.253 17.736C162.17 17.2667 163.194 17.032 164.325 17.032C168.016 17.032 169.861 19.176 169.861 23.464V33H165.861V23.656C165.861 22.44 165.626 21.5547 165.157 21C164.709 20.4453 164.005 20.168 163.045 20.168C161.872 20.168 160.933 20.5413 160.229 21.288C159.546 22.0133 159.205 22.984 159.205 24.2V33H155.205ZM181.092 33.32C176.953 33.32 174.884 31.272 174.884 27.176V20.36H171.876V17.352H174.884V12.68H178.884V17.352H183.62V20.36H178.884V26.952C178.884 27.976 179.108 28.744 179.556 29.256C180.004 29.768 180.729 30.024 181.732 30.024C182.03 30.024 182.34 29.992 182.66 29.928C182.98 29.8427 183.31 29.7573 183.652 29.672L184.26 32.616C183.876 32.8293 183.385 33 182.788 33.128C182.212 33.256 181.646 33.32 181.092 33.32Z" fill="black"/>
<path d="M25 0C21.717 0 18.466 0.646714 15.4329 1.903C12.3997 3.15943 9.64386 5.00086 7.32229 7.32229C5.00086 9.64386 3.15943 12.3997 1.903 15.4329C0.646714 18.466 0 21.717 0 25C0 28.283 0.646714 31.534 1.903 34.5671C3.15943 37.6003 5.00086 40.3561 7.32229 42.6777C9.64386 44.9991 12.3997 46.8406 15.4329 48.097C18.466 49.3533 21.717 50 25 50V37.5C23.3584 37.5 21.733 37.1767 20.2164 36.5484C18.6999 35.9203 17.3219 34.9996 16.1611 33.8389C15.0004 32.6781 14.0797 31.3001 13.4516 29.7836C12.8233 28.267 12.5 26.6416 12.5 25C12.5 23.3584 12.8233 21.733 13.4516 20.2164C14.0797 18.6999 15.0004 17.3219 16.1611 16.1611C17.3219 15.0004 18.6999 14.0797 20.2164 13.4516C21.733 12.8233 23.3584 12.5 25 12.5V0Z" fill="#0F52FF" fill-opacity="0.9"/>
<path d="M0 24.359C0 27.7262 0.646714 31.0605 1.903 34.1714C3.15943 37.2823 5.00086 40.1089 7.32229 42.49C9.64386 44.8709 12.3997 46.7596 15.4329 48.0482C18.466 49.3367 21.717 50 25 50C28.283 50 31.534 49.3367 34.5671 48.0482C37.6003 46.7596 40.3561 44.8709 42.6777 42.49C44.9991 40.1089 46.8406 37.2823 48.097 34.1714C49.3533 31.0605 50 27.7262 50 24.359H37.5C37.5 26.0426 37.1767 27.7097 36.5484 29.2652C35.9203 30.8207 34.9996 32.234 33.8389 33.4245C32.6781 34.615 31.3001 35.5593 29.7836 36.2035C28.267 36.8479 26.6416 37.1795 25 37.1795C23.3584 37.1795 21.733 36.8479 20.2164 36.2035C18.6999 35.5593 17.3219 34.615 16.1611 33.4245C15.0004 32.234 14.0797 30.8207 13.4516 29.2652C12.8233 27.7097 12.5 26.0426 12.5 24.359H0Z" fill="#5BD0F4" fill-opacity="0.9"/>
<path d="M25.6581 32.0513C30.3817 32.0513 34.2107 28.3204 34.2107 23.7179C34.2107 19.1155 30.3817 15.3846 25.6581 15.3846C20.9345 15.3846 17.1055 19.1155 17.1055 23.7179C17.1055 28.3204 20.9345 32.0513 25.6581 32.0513Z" fill="#0F52FF" fill-opacity="0.9"/>
<path d="M34.2107 24.359C34.2107 21.9788 33.3096 19.6963 31.7058 18.0132C30.1018 16.3301 27.9265 15.3846 25.6582 15.3846C23.3899 15.3846 21.2145 16.3301 19.6106 18.0132C18.0066 19.6963 17.1055 21.9788 17.1055 24.359H25.6582H34.2107Z" fill="#5BD0F4" fill-opacity="0.9"/>
</svg>
